<svg width="141" height="30" viewBox="0 0 141 30" fill="none" xmlns="http://www.w3.org/2000/svg">
<path fill-rule="evenodd" clip-rule="evenodd" d="M11.9663 13.4377C11.9674 12.1132 13.0419 11.0405 14.3663 11.0416C15.6908 11.0427 16.7635 12.1171 16.7624 13.4416C16.7613 14.766 15.6868 15.8388 14.3624 15.8377C13.038 15.8365 11.9653 14.7621 11.9663 13.4377ZM14.4541 12.1626C14.2214 12.1624 14.0325 12.3511 14.0323 12.5839L14.0308 14.292C14.0306 14.5247 14.2193 14.7136 14.452 14.7138C14.6847 14.7139 14.8736 14.5252 14.8738 14.2925L14.8751 12.5847C14.8753 12.3521 14.6867 12.1628 14.4541 12.1626Z" fill="white"/>
<path d="M28.9688 0.759145C30.1082 0.759274 31.0318 1.68286 31.0319 2.82227C31.0319 5.2633 29.0775 7.25492 26.6369 7.30093L15.0607 7.51914C11.5922 7.58448 8.70783 10.2072 8.31349 13.6539L7.40097 21.6294C7.30791 22.4441 8.04453 23.1083 8.84525 22.9316C10.2046 22.6313 11.5173 22.1484 12.7477 21.4971L13.4191 21.1419C14.918 20.3488 16.2783 19.3173 17.4465 18.0881L19.1943 16.2488C20.9618 14.3889 23.4008 13.3146 25.9661 13.2663C28.7483 13.2139 31.0319 15.4549 31.0319 18.2375V27.1768C31.0319 28.3163 30.1083 29.2403 28.9688 29.2405H2.06361C0.92404 29.2405 0 28.3164 0 27.1768V2.82227C0.000105537 1.68278 0.924105 0.759145 2.06361 0.759145H28.9688Z" fill="white"/>
<path d="M33.5824 1.72378C33.5824 1.25423 33.963 0.873591 34.4325 0.873591H64.1473C64.6168 0.873591 64.9975 1.25423 64.9975 1.72378V7.8873C64.9975 8.35685 64.6168 8.73749 64.1473 8.73749H43.8773C43.4078 8.73749 43.0272 9.11813 43.0272 9.58768V10.4005C43.0272 10.8701 43.4078 11.2507 43.8773 11.2507H62.7285C63.1981 11.2507 63.5787 11.6313 63.5787 12.1009V17.9807C63.5787 18.4502 63.1981 18.8308 62.7285 18.8308H43.8773C43.4078 18.8308 43.0272 19.2115 43.0272 19.681V20.5749C43.0272 21.0445 43.4078 21.4251 43.8773 21.4251H64.1473C64.6168 21.4251 64.9975 21.8058 64.9975 22.2753V28.4388C64.9975 28.9084 64.6168 29.289 64.1473 29.289H34.4325C33.963 29.289 33.5824 28.9084 33.5824 28.4388V1.72378Z" fill="white"/>
<path d="M85.7615 0.589844C99.8852 0.589844 104.921 5.35906 105.279 12.5481C105.302 13.017 104.919 13.3991 104.449 13.3991H96.3526C95.928 13.3991 95.5571 13.085 95.381 12.6985C94.784 11.3881 92.7029 8.69696 85.6804 8.69696C77.7355 8.69696 76.3978 11.8587 76.3978 15.0205C76.3978 18.5471 78.384 21.4251 85.6804 21.4251C92.7133 21.4251 94.7662 19.4 95.3651 18.2416C95.5777 17.8305 95.9819 17.4526 96.4447 17.4526H104.449C104.919 17.4526 105.303 17.8344 105.277 18.3032C104.937 24.4441 100.734 29.4106 86.0047 29.4106C71.2903 29.4106 66.6287 24.9112 66.6287 15.3448C66.6287 4.44072 73.3576 0.589844 85.7615 0.589844Z" fill="white"/>
<path d="M139.398 0.833056C140.172 0.833056 140.543 1.78246 139.975 2.30759L126.727 14.5529C126.36 14.8915 126.363 15.4711 126.732 15.8065L139.942 27.8096C140.517 28.3323 140.148 29.289 139.371 29.289H129.106C128.885 29.289 128.672 29.2027 128.514 29.0484L120.586 21.3411C120.261 21.025 119.745 21.0197 119.413 21.3291L117.235 23.362C117.063 23.5228 116.965 23.7478 116.965 23.9835V28.4388C116.965 28.9084 116.585 29.289 116.115 29.289H108.371C107.901 29.289 107.521 28.9084 107.521 28.4388V1.68324C107.521 1.2137 107.901 0.833056 108.371 0.833056H116.115C116.585 0.833056 116.965 1.2137 116.965 1.68324V10.1495C116.965 10.8984 117.863 11.2815 118.404 10.7632L128.515 1.06955C128.673 0.917788 128.884 0.833056 129.103 0.833056H139.398Z" fill="white"/>
</svg>
